<svg xmlns="http://www.w3.org/2000/svg" viewBox="0 0 128 128" width="128" height="128" role="img" aria-label="Silver division">
  <defs>
    <linearGradient id="em-silver-metal" x1="0" y1="0" x2="1" y2="1">
      <stop offset="0" stop-color="#ffffff"/><stop offset=".45" stop-color="#c3ccd5"/>
      <stop offset=".7" stop-color="#76818c"/><stop offset="1" stop-color="#c3ccd5"/>
    </linearGradient>
    <linearGradient id="em-silver-cloth" x1="0" y1="0" x2="0" y2="1">
      <stop offset="0" stop-color="#ffffff"/><stop offset=".55" stop-color="#c3ccd5"/><stop offset="1" stop-color="#76818c"/>
    </linearGradient>
    <linearGradient id="em-silver-dark" x1="0" y1="0" x2="0" y2="1">
      <stop offset="0" stop-color="#76818c"/><stop offset="1" stop-color="#343d46"/>
    </linearGradient>
    <linearGradient id="em-silver-pole" x1="0" y1="0" x2="1" y2="0">
      <stop offset="0" stop-color="#76818c"/><stop offset=".4" stop-color="#ffffff"/><stop offset="1" stop-color="#76818c"/>
    </linearGradient>
    <linearGradient id="em-silver-edge" x1="0" y1="0" x2="0" y2="1">
      <stop offset="0" stop-color="#76818c"/><stop offset="1" stop-color="#343d46"/>
    </linearGradient>
    <linearGradient id="em-silver-fold" x1="1" y1="0" x2="0" y2="0">
      <stop offset="0" stop-color="#000" stop-opacity=".18"/><stop offset=".22" stop-color="#fff" stop-opacity=".28"/>
      <stop offset=".5" stop-color="#000" stop-opacity=".16"/><stop offset=".78" stop-color="#fff" stop-opacity=".24"/>
      <stop offset="1" stop-color="#000" stop-opacity=".14"/>
    </linearGradient>
    <radialGradient id="em-silver-knob" cx=".35" cy=".35" r=".7">
      <stop offset="0" stop-color="#fff"/><stop offset=".35" stop-color="#ffffff"/><stop offset="1" stop-color="#76818c"/>
    </radialGradient>
    <radialGradient id="em-silver-plate" cx=".5" cy=".38" r=".65">
      <stop offset="0" stop-color="#76818c"/><stop offset="1" stop-color="#343d46"/>
    </radialGradient>
    <radialGradient id="em-silver-glow" gradientUnits="userSpaceOnUse" cx="64" cy="64" r="64">
      <stop offset=".75" stop-color="#c3ccd5" stop-opacity="1"/><stop offset="1" stop-color="#c3ccd5" stop-opacity="0"/>
    </radialGradient>
  </defs>
  <circle cx="64" cy="64" r="50" fill="url(#em-silver-plate)" stroke="url(#em-silver-metal)" stroke-width="6"/>
  <circle cx="64" cy="64" r="45.5" fill="none" stroke="#ffffff" stroke-opacity=".35" stroke-width="1"/>
  <circle cx="64" cy="64" r="55" fill="none" stroke="url(#em-silver-metal)" stroke-width="2"/>
  <g transform="translate(88 110) rotate(-26) scale(1.14)">
    <rect x="-2.3" y="-86" width="4.6" height="88" rx="2" fill="url(#em-silver-pole)" stroke="url(#em-silver-edge)" stroke-width="0.8"/>
    <path d="M0,-80 C-10,-86 -22,-73 -40,-80 L-40,-52 C-22,-45 -10,-58 0,-52 Z" fill="url(#em-silver-cloth)" stroke="url(#em-silver-edge)" stroke-width="1.4" stroke-linejoin="round"/>
    <path d="M0,-70 C-10,-76 -22,-63 -40,-70 L-40,-62 C-22,-55 -10,-68 0,-62 Z" fill="url(#em-silver-dark)"/>
    <path d="M0,-80 C-10,-86 -22,-73 -40,-80 L-40,-52 C-22,-45 -10,-58 0,-52 Z" fill="url(#em-silver-fold)"/>
    <circle cy="-89" r="4.2" fill="url(#em-silver-knob)" stroke="url(#em-silver-edge)" stroke-width="0.8"/>
  </g>
  <g transform="translate(128 0) scale(-1 1)"><g transform="translate(88 110) rotate(-26) scale(1.14)">
    <rect x="-2.3" y="-86" width="4.6" height="88" rx="2" fill="url(#em-silver-pole)" stroke="url(#em-silver-edge)" stroke-width="0.8"/>
    <path d="M0,-80 C-10,-86 -22,-73 -40,-80 L-40,-52 C-22,-45 -10,-58 0,-52 Z" fill="url(#em-silver-cloth)" stroke="url(#em-silver-edge)" stroke-width="1.4" stroke-linejoin="round"/>
    <polygon points="-20,-73.5 -18.2,-68.9 -13.3,-68.7 -17.1,-65.6 -15.9,-60.8 -20,-63.5 -24.1,-60.8 -22.9,-65.6 -26.7,-68.7 -21.8,-68.9" fill="url(#em-silver-dark)"/>
    <path d="M0,-80 C-10,-86 -22,-73 -40,-80 L-40,-52 C-22,-45 -10,-58 0,-52 Z" fill="url(#em-silver-fold)"/>
    <circle cy="-89" r="4.2" fill="url(#em-silver-knob)" stroke="url(#em-silver-edge)" stroke-width="0.8"/>
  </g></g>
</svg>
